<svg width="15" height="15" viewBox="0 0 15 15" fill="none" xmlns="http://www.w3.org/2000/svg">
<path id="Vector" d="M0.82901 0.859018C1.03995 0.648342 1.32588 0.530008 1.62401 0.530008C1.92214 0.530008 2.20807 0.648342 2.41901 0.859018L7.24901 5.68902L12.079 0.859018C12.2165 0.710931 12.3914 0.602674 12.5853 0.545652C12.7792 0.488631 12.9848 0.484957 13.1806 0.535017C13.3764 0.585077 13.5551 0.687017 13.6978 0.830098C13.8405 0.973179 13.942 1.1521 13.9915 1.34802C14.0415 1.54359 14.0379 1.749 13.9812 1.94272C13.9244 2.13643 13.8166 2.31131 13.669 2.44902L8.83901 7.27902L13.669 12.109C13.8171 12.2465 13.9254 12.4214 13.9824 12.6153C14.0394 12.8092 14.0431 13.0148 13.993 13.2106C13.943 13.4064 13.841 13.5851 13.6979 13.7278C13.5548 13.8705 13.3759 13.972 13.18 14.0215C12.9844 14.0715 12.779 14.0679 12.5853 14.0112C12.3916 13.9544 12.2167 13.8466 12.079 13.699L7.24901 8.86902L2.41901 13.699C2.20579 13.898 1.92364 14.0064 1.63205 14.0013C1.34047 13.9963 1.06223 13.8782 0.85601 13.672C0.649801 13.4658 0.53173 13.1876 0.526693 12.896C0.521656 12.6044 0.630047 12.3222 0.82901 12.109L5.65901 7.27902L0.82901 2.44902C0.618334 2.23808 0.5 1.95214 0.5 1.65402C0.5 1.35589 0.618334 1.06996 0.82901 0.859018Z" fill="black"/>
</svg>
