<svg width="44" height="41" viewBox="0 0 44 41" fill="none" xmlns="http://www.w3.org/2000/svg">
<path id="Vector" d="M20.4859 0.839319C20.8803 0.493806 21.3895 0.302979 21.917 0.302979C22.4445 0.302979 22.9537 0.493806 23.3481 0.839319L42.7461 17.8479C43.1516 18.2279 43.3915 18.7485 43.4151 19.2997C43.4387 19.8509 43.2441 20.3895 42.8726 20.8019C42.501 21.2142 41.9815 21.4679 41.4238 21.5094C40.8661 21.5509 40.3139 21.377 39.8838 21.0243L39.1596 20.3929V36.4448C39.1596 37.5725 38.7055 38.6541 37.8971 39.4515C37.0887 40.2489 35.9922 40.6969 34.849 40.6969H8.98501C7.84175 40.6969 6.74532 40.2489 5.93691 39.4515C5.12851 38.6541 4.67435 37.5725 4.67435 36.4448V20.3929L3.95016 21.0243C3.52008 21.377 2.96787 21.5509 2.41017 21.5094C1.85248 21.4679 1.33298 21.2142 0.961411 20.8019C0.589845 20.3895 0.395315 19.8509 0.418914 19.2997C0.442512 18.7485 0.682392 18.2279 1.08788 17.8479L20.4859 0.839319ZM8.98501 16.6084V36.4448H15.451V25.8144C15.451 25.2505 15.6781 24.7097 16.0823 24.311C16.4865 23.9123 17.0347 23.6883 17.6063 23.6883H26.2277C26.7993 23.6883 27.3475 23.9123 27.7517 24.311C28.1559 24.7097 28.383 25.2505 28.383 25.8144V36.4448H34.849V16.6106L21.917 5.27219L8.98501 16.6084ZM24.0723 36.4448V27.9404H19.7617V36.4448H24.0723Z" fill="black"/>
</svg>
