<svg width="31" height="39" viewBox="0 0 31 39" fill="none" xmlns="http://www.w3.org/2000/svg">
<path id="Vector" d="M15.417 0.611084C13.4279 0.611084 11.5202 1.40711 10.1137 2.82406C8.70717 4.241 7.91699 6.16278 7.91699 8.16664C7.91699 10.1705 8.70717 12.0923 10.1137 13.5092C11.5202 14.9262 13.4279 15.7222 15.417 15.7222C17.4061 15.7222 19.3138 14.9262 20.7203 13.5092C22.1268 12.0923 22.917 10.1705 22.917 8.16664C22.917 6.16278 22.1268 4.241 20.7203 2.82406C19.3138 1.40711 17.4061 0.611084 15.417 0.611084ZM24.792 19.5H6.04199C4.55015 19.5 3.11941 20.097 2.06452 21.1597C1.00962 22.2224 0.416992 23.6637 0.416992 25.1666C0.416992 29.3826 2.13824 32.76 4.96199 35.0455C7.74074 37.2933 11.4682 38.3889 15.417 38.3889C19.3657 38.3889 23.0932 37.2933 25.872 35.0455C28.692 32.76 30.417 29.3826 30.417 25.1666C30.417 23.6637 29.8244 22.2224 28.7695 21.1597C27.7146 20.097 26.2838 19.5 24.792 19.5Z" fill="black"/>
</svg>
