<svg width="37" height="37" viewBox="0 0 37 37" fill="none" xmlns="http://www.w3.org/2000/svg">
<path id="Vector" d="M13.3992 6.6895C15.6693 2.61883 16.8034 0.583496 18.5001 0.583496C20.1968 0.583496 21.3309 2.61883 23.601 6.6895L24.1886 7.743C24.8336 8.90041 25.1561 9.47912 25.6578 9.86075C26.1595 10.2424 26.7866 10.3839 28.0407 10.667L29.1802 10.925C33.5877 11.923 35.7897 12.421 36.3146 14.107C36.8378 15.7912 35.3364 17.5488 32.3318 21.0622L31.5542 21.9706C30.7013 22.9686 30.2731 23.4685 30.0814 24.0848C29.8897 24.7029 29.9542 25.3694 30.0832 26.7006L30.2015 27.9136C30.6548 32.6024 30.8823 34.9459 29.5099 35.9868C28.1375 37.0296 26.0735 36.0782 21.9491 34.179L20.8794 33.6881C19.7077 33.147 19.1218 32.8783 18.5001 32.8783C17.8784 32.8783 17.2925 33.147 16.1208 33.6881L15.0529 34.179C10.9267 36.0782 8.86272 37.0278 7.4921 35.9886C6.11789 34.9459 6.34543 32.6024 6.79872 27.9136L6.91697 26.7024C7.04597 25.3694 7.11047 24.7029 6.91697 24.0866C6.72705 23.4685 6.29885 22.9686 5.44601 21.9724L4.66843 21.0622C1.6638 17.5506 0.162387 15.793 0.685554 14.107C1.21051 12.421 3.41426 11.9212 7.82176 10.925L8.96126 10.667C10.2136 10.3839 10.8389 10.2424 11.3424 9.86075C11.8441 9.47912 12.1666 8.90041 12.8116 7.743L13.3992 6.6895Z" fill="black"/>
</svg>
